<svg width="760" height="220" viewBox="0 0 760 220" fill="none" xmlns="http://www.w3.org/2000/svg" role="img" aria-labelledby="title desc">
  <title id="title">Janus logo on dark background</title>
  <desc id="desc">Janus gradient wordmark with two rounded Agent portals connected through a governed routing node on a dark background.</desc>
  <rect width="760" height="220" fill="#08111F"/>
  <defs>
    <linearGradient id="janusLogoDarkOuter" x1="20" y1="31" x2="240" y2="151" gradientUnits="userSpaceOnUse">
      <stop offset="0" stop-color="#FB7185"/>
      <stop offset="0.5" stop-color="#FB923C"/>
      <stop offset="1" stop-color="#F97316"/>
    </linearGradient>
    <linearGradient id="janusLogoDarkInner" x1="46" y1="129" x2="214" y2="51" gradientUnits="userSpaceOnUse">
      <stop offset="0" stop-color="#14B8A6"/>
      <stop offset="1" stop-color="#5EEAD4"/>
    </linearGradient>
    <linearGradient id="janusWordDark" x1="246" y1="76" x2="505" y2="128" gradientUnits="userSpaceOnUse">
      <stop offset="0" stop-color="#FB7185"/>
      <stop offset="0.46" stop-color="#F97316"/>
      <stop offset="1" stop-color="#5EEAD4"/>
    </linearGradient>
  </defs>
  <g transform="translate(24 40) scale(0.77)">
    <path d="M116 29H73C42 29 20 54 20 90C20 126 42 151 73 151H116M144 29H187C218 29 240 54 240 90C240 126 218 151 187 151H144" fill="none" stroke="url(#janusLogoDarkOuter)" stroke-width="17" stroke-linecap="round"/>
    <path d="M112 51H78C60 51 46 67 46 90C46 113 60 129 78 129H112M148 51H182C200 51 214 67 214 90C214 113 200 129 182 129H148" fill="none" stroke="url(#janusLogoDarkInner)" stroke-width="9" stroke-linecap="round"/>
    <path d="M91 90H169" fill="none" stroke="#F8FAFC" stroke-width="7" stroke-linecap="round"/>
    <circle cx="130" cy="90" r="10" fill="#08111F" stroke="#F8FAFC" stroke-width="6"/>
  </g>
  <text x="246" y="128" fill="url(#janusWordDark)" font-family="Inter, ui-sans-serif, system-ui, -apple-system, BlinkMacSystemFont, 'Segoe UI', sans-serif" font-size="82" font-weight="700" letter-spacing="0">Janus</text>
  <text x="251" y="166" fill="#CBD5E1" font-family="Inter, ui-sans-serif, system-ui, -apple-system, BlinkMacSystemFont, 'Segoe UI', sans-serif" font-size="21" font-weight="500" letter-spacing="1.4">A2A-NATIVE AGENT BROKER</text>
</svg>
